<?xml version="1.0" encoding="UTF-8"?>
<!DOCTYPE svg PUBLIC "-//W3C//DTD SVG 1.1//EN" "http://www.w3.org/Graphics/SVG/1.1/DTD/svg11.dtd">
<svg xmlns="http://www.w3.org/2000/svg" version="1.1" width="32px" height="32px" style="shape-rendering:geometricPrecision; text-rendering:geometricPrecision; image-rendering:optimizeQuality; fill-rule:evenodd; clip-rule:evenodd" xmlns:xlink="http://www.w3.org/1999/xlink">
<g><path style="opacity:0.977" fill="#19212d" d="M 0.5,-0.5 C 10.5,-0.5 20.5,-0.5 30.5,-0.5C 30.5,0.166667 30.8333,0.5 31.5,0.5C 31.5,10.5 31.5,20.5 31.5,30.5C 30.8333,30.5 30.5,30.8333 30.5,31.5C 20.5,31.5 10.5,31.5 0.5,31.5C 0.5,30.8333 0.166667,30.5 -0.5,30.5C -0.5,20.5 -0.5,10.5 -0.5,0.5C 0.166667,0.5 0.5,0.166667 0.5,-0.5 Z"/></g>
<g><path style="opacity:1" fill="#ebeff1" d="M 15.5,6.5 C 16.2613,10.7843 17.5947,14.7843 19.5,18.5C 19.5,19.1667 19.5,19.8333 19.5,20.5C 20.3007,22.0418 20.634,23.7085 20.5,25.5C 18.8333,25.5 17.1667,25.5 15.5,25.5C 15.2204,21.7747 13.2204,20.608 9.5,22C 8.74756,22.6708 8.41423,23.5041 8.5,24.5C 6.58533,24.7845 4.91866,24.4511 3.5,23.5C 4.82671,17.6861 6.66004,12.0194 9,6.5C 11.1632,5.23204 13.3298,5.23204 15.5,6.5 Z"/></g>
<g><path style="opacity:1" fill="#0aa6f4" d="M 19.5,6.5 C 19.5,10.5 19.5,14.5 19.5,18.5C 17.5947,14.7843 16.2613,10.7843 15.5,6.5C 16.8333,5.16667 18.1667,5.16667 19.5,6.5 Z"/></g>
<g><path style="opacity:1" fill="#086ea1" d="M 19.5,6.5 C 20.4849,10.6344 20.8182,14.9677 20.5,19.5C 23.0593,19.1984 25.3926,19.5318 27.5,20.5C 24.8333,20.5 22.1667,20.5 19.5,20.5C 19.5,19.8333 19.5,19.1667 19.5,18.5C 19.5,14.5 19.5,10.5 19.5,6.5 Z"/></g>
<g><path style="opacity:1" fill="#434853" d="M 11.5,13.5 C 14.3465,15.7975 14.0132,17.1309 10.5,17.5C 10.4326,16.0413 10.7659,14.7079 11.5,13.5 Z"/></g>
<g><path style="opacity:1" fill="#119fea" d="M 19.5,20.5 C 22.1667,20.5 24.8333,20.5 27.5,20.5C 28.8009,21.8845 28.8009,23.3845 27.5,25C 25.1902,25.4966 22.8568,25.6633 20.5,25.5C 20.634,23.7085 20.3007,22.0418 19.5,20.5 Z"/></g>
<g><path style="opacity:1" fill="#94989d" d="M 3.5,23.5 C 4.91866,24.4511 6.58533,24.7845 8.5,24.5C 6.63648,25.7928 4.63648,25.7928 2.5,24.5C 2.62358,23.8933 2.95691,23.56 3.5,23.5 Z"/></g>
</svg>
